<?xml version="1.0" standalone="no"?>
<!DOCTYPE svg PUBLIC "-//W3C//DTD SVG 20010904//EN"
 "http://www.w3.org/TR/2001/REC-SVG-20010904/DTD/svg10.dtd">
<svg version="1.0" xmlns="http://www.w3.org/2000/svg"
 width="318.000000pt" height="318.000000pt" viewBox="0 0 318.000000 318.000000"
 preserveAspectRatio="xMidYMid meet">
<metadata>
Created by potrace 1.14, written by Peter Selinger 2001-2017
</metadata>
<g transform="translate(0.000000,318.000000) scale(0.100000,-0.100000)"
fill="#000000" stroke="none">
<path d="M1018 2695 c-2 -2 -28 -6 -58 -9 -426 -45 -808 -389 -906 -817 -27
-116 -36 -332 -20 -449 35 -259 132 -456 309 -631 202 -200 456 -300 767 -303
209 -2 298 10 454 60 151 48 278 126 390 238 72 73 146 170 146 191 0 5 -78
65 -173 133 l-172 123 -25 -29 c-14 -16 -43 -50 -65 -75 -110 -127 -273 -201
-470 -214 -267 -16 -494 90 -622 292 -41 65 -75 167 -77 230 l-1 50 828 2
c456 1 831 4 834 7 13 13 5 268 -13 379 -11 72 -16 93 -38 161 -90 276 -295
491 -563 592 -61 23 -162 50 -223 60 -31 5 -298 13 -302 9z m289 -425 c145
-48 278 -161 330 -279 32 -76 52 -152 40 -157 -7 -2 -271 -3 -587 -2 l-575 3
3 30 c6 56 78 187 134 244 76 78 204 153 286 167 14 3 41 9 61 14 62 14 239 3
308 -20z"/>
<path d="M2734 1229 c-171 -22 -313 -182 -316 -358 -4 -204 153 -371 355 -377
375 -12 527 472 213 679 -74 49 -159 68 -252 56z"/>
</g>
</svg>
